<svg width="512" height="512" viewBox="0 0 512 512" style="color:#FFFFFF" xmlns="http://www.w3.org/2000/svg" class="h-full w-full"><rect width="512" height="512" x="0" y="0" rx="30" fill="transparent" stroke="transparent" stroke-width="0" stroke-opacity="100%" paint-order="stroke"></rect><svg width="512px" height="512px" viewBox="0 0 36 36" fill="#FFFFFF" x="0" y="0" role="img" style="display:inline-block;vertical-align:middle" xmlns="http://www.w3.org/2000/svg"><g fill="#FFFFFF"><path fill="currentColor" d="m19.41 18l7.29-7.29a1 1 0 0 0-1.41-1.41L18 16.59l-7.29-7.3A1 1 0 0 0 9.3 10.7l7.29 7.3l-7.3 7.29a1 1 0 1 0 1.41 1.41l7.3-7.29l7.29 7.29a1 1 0 0 0 1.41-1.41Z" class="clr-i-outline clr-i-outline-path-1"/><path fill="none" d="M0 0h36v36H0z"/></g></svg></svg>